<?xml version="1.0" encoding="UTF-8"?><svg id="Capa_2" xmlns="http://www.w3.org/2000/svg" viewBox="0 0 298.4 192.96"><defs><style>.cls-1{fill:#fff;}</style></defs><g id="Capa_1-2"><path class="cls-1" d="M150.07,97.01c0-30.85,0-61.7,0-92.56,0-3.43,.88-4.37,4.21-4.37,41.53,.01,83.06,.19,124.59-.09,7.97-.05,12.07,4.17,15.77,10.01,3.29,5.19,3.61,11.06,3.64,16.83,.16,23.45-.04,46.9,.12,70.35,.03,4.59-3.18,6-6.09,7.88-6.89,4.43-13.83,8.79-20.79,13.12-6.61,4.12-13.28,8.15-19.88,12.28-5.19,3.25-10.29,6.64-15.47,9.91-5.6,3.54-11.23,7.04-16.93,10.42-.47,.28-1.94-.23-2.25-.77-.49-.87-.54-2.07-.54-3.13-.05-12.81-.04-25.61-.07-38.42,0-2.45,.96-4.22,3.11-5.55,5.06-3.15,10.03-6.45,15.03-9.68,5.29-3.41,10.53-6.89,15.89-10.19,3.24-1.99,5.14-4.21,5-8.48-.38-11.13-.21-22.28-.24-33.42-.01-4.47-.38-4.88-4.76-4.88-18.23,0-36.45,0-54.68,0q-6.68,0-6.68,6.72c0,39.67-.15,79.33,.13,119,.04,5.9-2.2,9.16-6.93,11.9-5.44,3.15-10.6,6.79-15.88,10.21-4.4,2.85-8.76,5.75-13.22,8.49-.09,.06-.21,.1-.31,.13-2.01,.64-2.43-.08-2.61-1.62-.12-1.04-.17-2.09-.17-3.13,0-30.32,0-60.64,0-90.96Z"/><path class="cls-1" d="M129.73,96.6c0,30.34,0,60.69,0,91.03,0,.66-.06,1.4-.06,1.98,0,.3-.09,1.5-.12,1.8-.16,1.4-.11,1.88-1.92,1.21,0,0-1.75-1.15-1.76-1.15-6.83-4.97-13.66-9.94-20.44-14.98-4.66-3.46-9.27-6.99-13.82-10.59-.7-.55-1.21-1.58-1.42-2.47-.3-1.28-.32-2.64-.32-3.96-.01-39.41,0-78.81,0-118.22,0-4.36-.32-4.71-4.6-4.71-27.27,0-54.54,.03-81.8,.04-.21,0-.56-.02-.77-.03-.46-.04-.68-.08-1.04-.17-1.38-.37-2.02-2.03-1.46-3.33,.22-.5,.47-.98,.8-1.4,4.9-6.27,9.93-12.44,14.92-18.64,3.02-3.75,5.9-7.62,9.15-11.15,.96-1.05,2.97-1.6,4.5-1.6,31.87-.1,63.73-.1,95.6-.1,3.67,0,4.35,.72,4.35,4.42,0,30.68,0,61.35,0,92.03,.07,0,.15,0,.22,0Z"/></g></svg>